<?xml version="1.0" standalone="no"?>
<!DOCTYPE svg PUBLIC "-//W3C//DTD SVG 1.1//EN" "http://www.w3.org/Graphics/SVG/1.1/DTD/svg11.dtd">
<!--Generator: Xara Xtreme (www.xara.com), SVG filter version: 1.0.0.13-->
<svg stroke-width="0.501" stroke-linejoin="bevel" fill-rule="evenodd" xmlns:xlink="http://www.w3.org/1999/xlink" xmlns="http://www.w3.org/2000/svg" version="1.1" overflow="visible" width="60pt" height="60pt" viewBox="0 0 60 60">
 <defs>
  <marker id="DefaultArrow2" markerUnits="strokeWidth" viewBox="0 0 1 1" markerWidth="1" markerHeight="1" overflow="visible" orient="auto">
   <!-- REF_ARROW_STRAIGHT (-2) -->
   <g transform="scale(0.0092592592)">
    <!-- 1/108 -->
    <path d="M -9 54 L -9 -54 L 117 0 z"/>
   </g>
  </marker>
  <marker id="DefaultArrow3" markerUnits="strokeWidth" viewBox="0 0 1 1" markerWidth="1" markerHeight="1" overflow="visible" orient="auto">
   <!-- REF_ARROW_ANGLED -->
   <g transform="scale(0.0092592592)">
    <path d="M -27 54 L -9 0 L -27 -54 L 135 0 z"/>
   </g>
  </marker>
  <marker id="DefaultArrow4" markerUnits="strokeWidth" viewBox="0 0 1 1" markerWidth="1" markerHeight="1" overflow="visible" orient="auto">
   <!-- REF_ARROW_ROUNDED -->
   <g transform="scale(0.0092592592)">
    <path d="M -9,0 L -9,-45 C -9,-51.708 2.808,-56.580 9,-54 L 117,-9 C 120.916,-7.369 126.000,-4.242 126,0 C 126,4.242 120.916,7.369 117,9 L 9,54 C 2.808,56.580 -9,51.708 -9,45 z"/>
   </g>
  </marker>
  <marker id="DefaultArrow5" markerUnits="strokeWidth" viewBox="0 0 1 1" markerWidth="1" markerHeight="1" overflow="visible" orient="auto">
   <!-- REF_ARROW_SPOT -->
   <g transform="scale(0.0092592592)">
    <path d="M -54, 0 C -54,29.807 -29.807,54 0,54 C 29.807,54 54,29.807 54,0 C 54,-29.807 29.807,-54 0,-54 C -29.807,-54 -54,-29.807 -54,0 z"/>
   </g>
  </marker>
  <marker id="DefaultArrow6" markerUnits="strokeWidth" viewBox="0 0 1 1" markerWidth="1" markerHeight="1" overflow="visible" orient="auto">
   <!-- REF_ARROW_DIAMOND -->
   <g transform="scale(0.0092592592)">
    <path d="M -63,0 L 0,63 L 63,0 L 0,-63 z"/>
   </g>
  </marker>
  <marker id="DefaultArrow7" markerUnits="strokeWidth" viewBox="0 0 1 1" markerWidth="1" markerHeight="1" overflow="visible" orient="auto">
   <!-- REF_ARROW_FEATHER -->
   <g transform="scale(0.0092592592)">
    <path d="M 18,-54 L 108,-54 L 63,0 L 108,54 L 18, 54 L -36,0 z"/>
   </g>
  </marker>
  <marker id="DefaultArrow8" markerUnits="strokeWidth" viewBox="0 0 1 1" markerWidth="1" markerHeight="1" overflow="visible" orient="auto">
   <!-- REF_ARROW_FEATHER2 -->
   <g transform="scale(0.0092592592)">
    <path d="M -36,0 L 18,-54 L 54,-54 L 18,-18 L 27,-18 L 63,-54 L 99,-54 L 63,-18 L 72,-18 L 108,-54 L 144,-54 L 90,0 L 144,54 L 108,54 L 72,18 L 63,18 L 99,54 L 63,54 L 27,18 L 18,18 L 54,54 L 18,54 z"/>
   </g>
  </marker>
  <marker id="DefaultArrow9" markerUnits="strokeWidth" viewBox="0 0 1 1" markerWidth="1" markerHeight="1" overflow="visible" orient="auto">
   <!-- REF_ARROW_HOLLOWDIAMOND -->
   <g transform="scale(0.0092592592)">
    <path d="M 0,45 L -45,0 L 0, -45 L 45, 0 z M 0, 63 L-63, 0 L 0, -63 L 63, 0 z"/>
   </g>
  </marker>
  <filter id="StainedFilter">
   <feBlend mode="multiply" in2="BackgroundImage" in="SourceGraphic" result="blend"/>
   <feComposite in="blend" in2="SourceAlpha" operator="in" result="comp"/>
  </filter>
  <filter id="BleachFilter">
   <feBlend mode="screen" in2="BackgroundImage" in="SourceGraphic" result="blend"/>
   <feComposite in="blend" in2="SourceAlpha" operator="in" result="comp"/>
  </filter>
  <filter id="InvertTransparencyBitmapFilter">
   <feComponentTransfer>
    <feFuncR type="gamma" amplitude="1.055" exponent=".416666666" offset="-0.055"/>
    <feFuncG type="gamma" amplitude="1.055" exponent=".416666666" offset="-0.055"/>
    <feFuncB type="gamma" amplitude="1.055" exponent=".416666666" offset="-0.055"/>
   </feComponentTransfer>
   <feComponentTransfer>
    <feFuncR type="linear" slope="-1" intercept="1"/>
    <feFuncG type="linear" slope="-1" intercept="1"/>
    <feFuncB type="linear" slope="-1" intercept="1"/>
    <feFuncA type="linear" slope="1" intercept="0"/>
   </feComponentTransfer>
   <feComponentTransfer>
    <feFuncR type="gamma" amplitude="1" exponent="2.4" offset="0"/>
    <feFuncG type="gamma" amplitude="1" exponent="2.4" offset="0"/>
    <feFuncB type="gamma" amplitude="1" exponent="2.4" offset="0"/>
   </feComponentTransfer>
  </filter>
 </defs>
 <g id="Document" fill="none" stroke="black" font-family="Times New Roman" font-size="16" transform="scale(1 -1)">
  <g id="Spread" transform="translate(0 -60)">
   <g id="all_icons">
    <path d="M 0.335,0.335 C -0.104,0.774 -0.104,1.487 0.335,1.926 L 14.398,15.989 C 10.098,20.664 7.472,26.9 7.472,33.746 C 7.472,48.233 19.237,59.992 33.732,59.992 C 48.226,59.992 59.992,48.233 59.992,33.746 C 59.992,19.258 48.226,7.5 33.732,7.5 C 26.895,7.5 20.665,10.115 15.991,14.4 L 1.926,0.335 C 1.487,-0.104 0.774,-0.104 0.335,0.335 Z M 57.742,33.746 C 57.742,46.99 46.985,57.742 33.732,57.742 C 20.478,57.742 9.722,46.99 9.722,33.746 C 9.722,20.501 20.478,9.75 33.732,9.75 C 46.985,9.75 57.742,20.501 57.742,33.746 Z M 28.021,23.25 L 25.873,23.25 C 25.252,23.25 24.748,23.754 24.748,24.375 C 24.748,24.995 25.252,25.5 25.873,25.5 L 26.997,25.5 L 26.997,43.136 C 26.997,43.756 27.501,44.261 28.122,44.261 L 39.378,44.261 C 39.998,44.261 40.503,43.756 40.503,43.136 L 40.503,25.5 L 41.627,25.5 C 42.247,25.5 42.752,24.995 42.752,24.375 C 42.752,23.754 42.247,23.25 41.627,23.25 L 39.478,23.25 C 39.445,23.247 39.411,23.246 39.378,23.246 C 39.344,23.246 39.31,23.247 39.277,23.25 L 28.222,23.25 C 28.189,23.247 28.155,23.246 28.122,23.246 C 28.088,23.246 28.054,23.247 28.021,23.25 Z M 38.253,25.5 L 38.253,42.011 L 29.247,42.011 L 29.247,25.5 L 38.253,25.5 Z M 30.749,27.317 L 30.749,28.932 C 30.749,29.107 30.892,29.25 31.067,29.25 L 32.684,29.25 C 32.859,29.25 33.002,29.107 33.002,28.932 L 33.002,27.317 C 33.002,27.142 32.859,26.999 32.684,26.999 L 31.067,26.999 C 30.892,26.999 30.749,27.142 30.749,27.317 Z M 34.5,27.318 L 34.5,28.931 C 34.5,29.106 34.643,29.249 34.818,29.249 L 36.433,29.249 C 36.608,29.249 36.751,29.106 36.751,28.931 L 36.751,27.318 C 36.751,27.143 36.608,27 36.433,27 L 34.818,27 C 34.643,27 34.5,27.143 34.5,27.318 Z M 30.749,31.068 L 30.749,32.681 C 30.749,32.856 30.892,32.999 31.067,32.999 L 32.682,32.999 C 32.857,32.999 33,32.856 33,32.681 L 33,31.068 C 33,30.893 32.857,30.75 32.682,30.75 L 31.067,30.75 C 30.892,30.75 30.749,30.893 30.749,31.068 Z M 34.5,31.068 L 34.5,32.681 C 34.5,32.856 34.643,32.999 34.818,32.999 L 36.433,32.999 C 36.608,32.999 36.751,32.856 36.751,32.681 L 36.751,31.068 C 36.751,30.893 36.608,30.75 36.433,30.75 L 34.818,30.75 C 34.643,30.75 34.5,30.893 34.5,31.068 Z M 34.499,34.817 L 34.499,36.432 C 34.499,36.607 34.642,36.75 34.817,36.75 L 36.434,36.75 C 36.609,36.75 36.752,36.607 36.752,36.432 L 36.752,34.817 C 36.752,34.642 36.609,34.499 36.434,34.499 L 34.817,34.499 C 34.642,34.499 34.499,34.642 34.499,34.817 Z M 30.749,34.818 L 30.749,36.431 C 30.749,36.606 30.892,36.749 31.067,36.749 L 32.682,36.749 C 32.857,36.749 33,36.606 33,36.431 L 33,34.818 C 33,34.643 32.857,34.5 32.682,34.5 L 31.067,34.5 C 30.892,34.5 30.749,34.643 30.749,34.818 Z M 30.749,38.567 L 30.749,40.182 C 30.749,40.357 30.892,40.5 31.067,40.5 L 32.684,40.5 C 32.859,40.5 33.002,40.357 33.002,40.182 L 33.002,38.567 C 33.002,38.392 32.859,38.249 32.684,38.249 L 31.067,38.249 C 30.892,38.249 30.749,38.392 30.749,38.567 Z M 34.5,38.568 L 34.5,40.181 C 34.5,40.356 34.643,40.499 34.818,40.499 L 36.433,40.499 C 36.608,40.499 36.751,40.356 36.751,40.181 L 36.751,38.568 C 36.751,38.393 36.608,38.25 36.433,38.25 L 34.818,38.25 C 34.643,38.25 34.5,38.393 34.5,38.568 Z" stroke-width="0.5" stroke="none" fill="#00985f" fill-rule="evenodd" marker-start="none" marker-end="none" stroke-miterlimit="79.8403193612775"/>
   </g>
  </g>
 </g>
</svg>
